# xmcd CD database file
#
# Track frame offsets:
#	150
#	10225
#	20102
#	31097
#	42730
#	53652
#	63757
#	73382
#	83762
#	93775
#	103452
#	112772
#	126267
#	138022
#	152550
#	161955
#	174060
#	186410
#	199402
#	211690
#	224707
#	243542
#
# Disc length: 3483 seconds
#
# Revision: 1
# Processed by: cddbd v1.5.1PL0 Copyright (c) Steve Scherf et al.
# Submitted via: CDex 1.51
#
DISCID=3a0d9916
DTITLE=Merrill Moore - Boogie My Blues Away [CD2]
DYEAR=1900
DGENRE=Blues
TTITLE0=Rock Island Line
TTITLE1=King Porter Stomp
TTITLE2=Cooing The Wrong Pigeon
TTITLE3=She's Gone
TTITLE4=Down The Road A Piece
TTITLE5=Gotta Gimme What'cha Got
TTITLE6=Nursery Rhyme Blues
TTITLE7=Buttermilk Baby
TTITLE8=Barrel House Bessie
TTITLE9=Tuck Me To Sleep In My Old Tucky Home
TTITLE10=Music, Music, Music
TTITLE11=Sun Walley Walk
TTITLE12=Lazy River
TTITLE13=Back Home Indiana
TTITLE14=South
TTITLE15=Shanty In Old Shanty Town
TTITLE16=Sweet Georgia Brown
TTITLE17=Nobody's Sweetheart
TTITLE18=Jumpin At The Woodside
TTITLE19=Somebosy Stole My Gal
TTITLE20=Moore Blues
TTITLE21=Sentimental Journey
EXTD=
EXTT0=
EXTT1=
EXTT2=
EXTT3=
EXTT4=
EXTT5=
EXTT6=
EXTT7=
EXTT8=
EXTT9=
EXTT10=
EXTT11=
EXTT12=
EXTT13=
EXTT14=
EXTT15=
EXTT16=
EXTT17=
EXTT18=
EXTT19=
EXTT20=
EXTT21=
PLAYORDER=
